<svg width="20" height="19" viewBox="0 0 20 19" fill="none" xmlns="http://www.w3.org/2000/svg">
<path d="M3 14H16C18.2091 14 20 12.2091 20 10C20 8.12384 18.7083 6.54938 16.9657 6.11736C16.9884 5.9147 17 5.70871 17 5.5C17 2.46243 14.5376 0 11.5 0C8.98056 0 6.85678 1.69403 6.20557 4.00519C6.13748 4.00174 6.06894 4 6 4C3.79086 4 2 5.79086 2 8C2 8.05677 2.00118 8.11327 2.00352 8.16946C0.83649 8.5803 0 9.69246 0 11C0 12.6569 1.34315 14 3 14Z" fill="black"/>
<path d="M10.5517 19H9.44828L9.55862 17.7778L8.55172 18.4861L8 17.5139L9.10345 17L8 16.4861L8.55172 15.5139L9.55862 16.2222L9.44828 15H10.5517L10.4414 16.2222L11.4483 15.5139L12 16.4861L10.8966 17L12 17.5139L11.4483 18.4861L10.4414 17.7778L10.5517 19Z" fill="black"/>
</svg>
